<svg width="210" height="210" viewBox="0 0 210 210" fill="none" xmlns="http://www.w3.org/2000/svg">
<rect width="210" height="210" rx="105" fill="#191919"/>
<path d="M98.3641 78.7187L116.379 96.8922L86.8583 96.9972L68.8438 78.8027L98.3641 78.7187Z" fill="black"/>
<path d="M86.8584 98.0472C86.5855 98.0472 86.3125 97.9422 86.1236 97.7321L68.109 79.5586C67.8151 79.2644 67.7311 78.8022 67.8781 78.424C68.0461 78.0248 68.424 77.7727 68.8439 77.7727L98.3642 77.6677C98.6371 77.6677 98.9101 77.7727 99.0991 77.9828L117.114 96.1564C117.408 96.4505 117.492 96.9127 117.345 97.2909C117.198 97.6691 116.799 97.9422 116.379 97.9422L86.8584 98.0472ZM71.3634 79.8527L87.2993 95.9463L113.859 95.8622L97.9233 79.7687L71.3634 79.8527Z" fill="white"/>
<path d="M95.1523 135.613L77.1378 117.419C76.172 116.431 75.1852 115.318 74.2194 114.057L92.2339 132.231C93.2207 133.512 94.1865 134.626 95.1523 135.613Z" fill="white"/>
<path d="M95.1526 136.663C94.8797 136.663 94.6067 136.558 94.4178 136.348L76.4243 118.175C75.4374 117.166 74.4086 116.011 73.4218 114.708C73.0859 114.267 73.1489 113.636 73.5688 113.279C73.9887 112.922 74.6186 112.943 74.9965 113.321L93.011 131.495C94.0398 132.818 94.9847 133.911 95.9085 134.835L95.9295 134.856C96.3284 135.277 96.3284 135.928 95.9295 136.348C95.6985 136.558 95.4256 136.663 95.1526 136.663Z" fill="white"/>
<path d="M74.2194 114.057L92.2339 132.231C92.6748 132.819 93.1367 133.365 93.5776 133.891L75.5631 115.717C75.1222 115.192 74.6603 114.646 74.2194 114.057Z" fill="white"/>
<path d="M93.5776 134.941C93.3046 134.941 93.0317 134.836 92.8427 134.626L74.8282 116.452C74.3243 115.864 73.8624 115.297 73.4005 114.688C73.0645 114.246 73.1275 113.616 73.5474 113.259C73.9674 112.902 74.5972 112.923 74.9752 113.301L92.9897 131.474C93.5146 132.147 93.9555 132.672 94.3964 133.197C94.7744 133.617 94.7324 134.269 94.3124 134.647C94.1025 134.857 93.8505 134.941 93.5776 134.941Z" fill="white"/>
<path d="M75.5629 115.716L93.5774 133.89C94.1023 134.499 94.6272 135.066 95.1521 135.592L77.1376 117.418C76.6127 116.893 76.0878 116.326 75.5629 115.716Z" fill="white"/>
<path d="M95.1521 136.665C94.8792 136.665 94.6062 136.559 94.4172 136.349L76.4027 118.176C75.8568 117.63 75.3109 117.041 74.786 116.411C74.4081 115.991 74.4501 115.34 74.87 114.961C75.2899 114.583 75.9198 114.583 76.3187 115.003L94.3333 133.177C94.8792 133.807 95.3831 134.353 95.887 134.879L95.908 134.9C96.3069 135.32 96.3069 135.971 95.908 136.391C95.698 136.559 95.425 136.665 95.1521 136.665Z" fill="white"/>
<path d="M127.885 56.5318L126.436 109.897C126.394 111.304 126.31 112.67 126.184 114.015C126.142 114.519 126.058 115.002 125.995 115.506C125.89 116.326 125.806 117.145 125.659 117.944C125.575 118.469 125.449 118.952 125.345 119.477C125.198 120.234 125.051 120.99 124.862 121.704C124.799 121.956 124.715 122.209 124.652 122.44C124.4 123.343 124.127 124.204 123.833 125.045C123.77 125.234 123.707 125.423 123.644 125.612C123.497 126.011 123.308 126.39 123.14 126.789C122.825 127.566 122.489 128.322 122.111 129.058C121.88 129.52 121.607 129.94 121.355 130.381C121.04 130.928 120.725 131.474 120.389 131.978C120.117 132.398 119.802 132.777 119.508 133.176C119.13 133.701 118.731 134.205 118.311 134.688C117.744 135.34 117.198 135.97 116.568 136.558C115.896 137.189 115.182 137.777 114.448 138.365C114.091 138.638 113.734 138.89 113.377 139.142C112.894 139.5 112.39 139.836 111.865 140.151C111.487 140.382 111.067 140.613 110.668 140.844C110.143 141.138 109.598 141.412 109.031 141.685C108.611 141.895 108.17 142.084 107.75 142.273C107.162 142.525 106.574 142.756 105.965 142.966C105.503 143.134 105.062 143.302 104.58 143.45C103.95 143.66 103.278 143.828 102.627 143.996C102.144 144.122 101.682 144.248 101.199 144.353C100.485 144.5 99.7505 144.647 99.0156 144.773C98.5327 144.857 98.0708 144.941 97.5669 145.025C96.727 145.151 95.8662 145.214 94.9844 145.298C94.5645 145.34 94.1445 145.403 93.7036 145.424C92.3809 145.508 91.0161 145.572 89.6094 145.572C82.8277 145.593 76.7179 144.521 71.28 142.336C66.8078 140.571 63.0285 138.092 59.9211 134.962L77.9357 153.135C81.0431 156.266 84.8223 158.745 89.2945 160.509C94.7534 162.695 100.863 163.766 107.624 163.745C109.031 163.745 110.395 163.682 111.718 163.598C112.159 163.577 112.558 163.514 112.999 163.472C113.881 163.388 114.742 163.304 115.581 163.199C116.085 163.136 116.547 163.031 117.03 162.947C117.765 162.821 118.5 162.695 119.214 162.526C119.697 162.421 120.18 162.295 120.662 162.169C121.334 162.001 121.985 161.812 122.615 161.623C123.077 161.476 123.539 161.308 124.001 161.14C124.61 160.93 125.198 160.699 125.785 160.446C126.226 160.257 126.646 160.068 127.087 159.858C127.654 159.585 128.2 159.312 128.725 159.018C129.124 158.787 129.523 158.577 129.922 158.324C130.447 158.009 130.95 157.673 131.433 157.316C131.79 157.064 132.168 156.812 132.504 156.539C132.651 156.434 132.798 156.35 132.924 156.223C133.512 155.74 134.079 155.257 134.625 154.732C135.087 154.291 135.549 153.807 135.989 153.324C136.115 153.177 136.241 153.009 136.367 152.862C136.787 152.379 137.186 151.874 137.564 151.349C137.753 151.076 137.984 150.845 138.173 150.572C138.257 150.446 138.341 150.278 138.425 150.152C138.761 149.647 139.076 149.101 139.391 148.555C139.58 148.24 139.79 147.925 139.979 147.609C140.042 147.483 140.084 147.357 140.147 147.231C140.525 146.496 140.861 145.74 141.175 144.962C141.301 144.647 141.469 144.374 141.595 144.059C141.637 143.975 141.658 143.87 141.679 143.786C141.742 143.597 141.805 143.407 141.868 143.218C142.162 142.378 142.435 141.496 142.687 140.613C142.75 140.361 142.834 140.13 142.897 139.878C142.939 139.71 142.981 139.563 143.023 139.395C143.17 138.827 143.254 138.239 143.38 137.651C143.485 137.147 143.59 136.642 143.695 136.117C143.821 135.319 143.926 134.499 144.031 133.68C144.094 133.176 144.178 132.713 144.22 132.188C144.22 132.125 144.241 132.062 144.241 131.999C144.346 130.739 144.43 129.436 144.472 128.091L145.921 74.7263L127.885 56.5318Z" fill="black"/>
<path d="M107.414 164.775C100.612 164.775 94.3757 163.661 88.8958 161.455C84.3397 159.648 80.4134 157.085 77.1801 153.829L59.1865 135.676L59.1655 135.655C58.7666 135.235 58.7666 134.584 59.1655 134.163C59.5854 133.764 60.2363 133.764 60.6562 134.163C63.6797 137.21 67.3749 139.605 71.6581 141.307C76.9491 143.429 83.0799 144.521 89.6097 144.458C90.9954 144.458 92.3391 144.395 93.6409 144.311C93.8928 144.29 94.1448 144.269 94.3757 144.248L94.9006 144.185C95.7615 144.101 96.6223 144.038 97.4411 143.912C97.7561 143.87 98.071 143.807 98.386 143.744L98.8479 143.66C99.5617 143.534 100.297 143.408 100.989 143.261C101.346 143.177 101.703 143.092 102.06 142.987L102.396 142.903C103.047 142.735 103.677 142.567 104.307 142.378C104.769 142.231 105.21 142.084 105.651 141.916C106.238 141.706 106.826 141.475 107.393 141.244C107.813 141.076 108.233 140.886 108.653 140.676C109.199 140.424 109.724 140.151 110.228 139.857C110.627 139.647 111.005 139.416 111.382 139.206C111.886 138.891 112.369 138.575 112.831 138.239C113.272 137.924 113.566 137.714 113.86 137.483C114.448 137.021 115.204 136.432 115.897 135.76C116.484 135.193 117.03 134.584 117.576 133.974C117.975 133.512 118.353 133.029 118.731 132.525C119.088 132.041 119.34 131.705 119.571 131.369C119.907 130.865 120.201 130.34 120.516 129.814L120.705 129.499C120.894 129.184 121.083 128.869 121.251 128.533C121.607 127.839 121.922 127.083 122.237 126.348L122.447 125.864C122.552 125.654 122.636 125.423 122.72 125.192L122.909 124.646C123.203 123.826 123.455 122.986 123.707 122.104L123.917 121.389C124.085 120.759 124.211 120.108 124.337 119.456L124.484 118.721C124.547 118.406 124.631 118.07 124.673 117.734C124.799 117.04 124.883 116.305 124.967 115.591L125.072 114.771C125.114 114.477 125.156 114.183 125.177 113.889C125.303 112.586 125.387 111.242 125.429 109.855L126.877 56.4899C126.898 56.0697 127.15 55.6916 127.549 55.5445C127.948 55.3974 128.389 55.4815 128.683 55.7756L146.698 73.9491C146.908 74.1592 147.013 74.4323 147.013 74.7265L145.564 128.091C145.522 129.457 145.459 130.781 145.333 132.062C145.27 132.588 145.228 132.924 145.186 133.239L145.081 134.058C144.997 134.794 144.892 135.55 144.787 136.264C144.724 136.642 144.64 137 144.577 137.357L144.367 138.428C144.283 138.827 144.22 139.248 144.115 139.626L143.758 140.886C143.506 141.811 143.233 142.693 142.918 143.576L142.708 144.164L142.603 144.437C142.519 144.626 142.435 144.836 142.351 145.025L142.184 145.383C141.848 146.181 141.512 146.979 141.113 147.736C141.029 147.946 140.987 148.03 140.945 148.135C140.84 148.345 140.693 148.555 140.567 148.765L140.294 149.08C139.958 149.648 139.643 150.215 139.286 150.74C139.139 150.971 139.076 151.097 139.013 151.181C138.887 151.349 138.761 151.517 138.614 151.686L138.383 151.98C137.984 152.505 137.585 153.03 137.144 153.534L137.019 153.702C136.935 153.808 136.851 153.913 136.767 154.018C136.305 154.522 135.843 155.005 135.339 155.467C134.772 156.014 134.184 156.518 133.575 157.022C133.491 157.106 133.386 157.169 133.281 157.232C132.84 157.568 132.546 157.778 132.231 157.988L132.021 158.136C131.518 158.493 130.993 158.85 130.447 159.186C130.048 159.438 129.628 159.669 129.208 159.9C128.662 160.216 128.095 160.489 127.507 160.783C127.066 160.993 126.626 161.203 126.185 161.392C125.576 161.644 124.967 161.875 124.337 162.106C123.875 162.274 123.392 162.443 122.909 162.59C122.258 162.8 121.586 162.989 120.894 163.157L120.642 163.22C120.243 163.325 119.823 163.43 119.403 163.535C118.668 163.703 117.933 163.829 117.177 163.955L116.736 164.039C116.4 164.102 116.044 164.165 115.708 164.207C114.847 164.333 113.965 164.417 113.083 164.481L112.6 164.523C112.327 164.544 112.075 164.586 111.802 164.607C110.438 164.691 109.073 164.754 107.624 164.754C107.561 164.775 107.498 164.775 107.414 164.775ZM68.7817 142.357L78.6918 152.358C81.7152 155.404 85.4105 157.799 89.6936 159.501C94.9846 161.623 101.031 162.632 107.645 162.653C109.031 162.653 110.375 162.59 111.676 162.506C111.928 162.485 112.159 162.464 112.411 162.443L112.936 162.38C113.797 162.295 114.637 162.232 115.477 162.106C115.813 162.064 116.128 162.001 116.421 161.938L116.883 161.854C117.597 161.728 118.332 161.602 119.025 161.455C119.424 161.371 119.802 161.266 120.18 161.161L120.432 161.098C121.083 160.93 121.712 160.762 122.342 160.573C122.804 160.426 123.245 160.279 123.686 160.11C124.274 159.9 124.862 159.669 125.408 159.438C125.828 159.249 126.248 159.06 126.647 158.871C127.192 158.619 127.717 158.346 128.242 158.051C128.641 157.841 129.019 157.61 129.397 157.379C129.901 157.064 130.384 156.749 130.846 156.413L131.056 156.266C131.329 156.077 131.602 155.887 131.875 155.677L132.126 155.509C132.861 154.942 133.407 154.459 133.932 153.955C134.394 153.513 134.814 153.072 135.255 152.61L135.381 152.442C135.465 152.337 135.528 152.253 135.612 152.148C136.011 151.686 136.389 151.202 136.767 150.698C136.872 150.572 136.956 150.446 137.061 150.32C137.165 150.194 137.27 150.089 137.354 149.942L137.606 149.522C137.942 149.017 138.236 148.492 138.551 147.967C138.635 147.82 138.74 147.673 138.824 147.526C138.929 147.379 139.034 147.21 139.118 147.042C139.118 147.021 139.265 146.706 139.286 146.685C139.643 145.971 139.979 145.235 140.294 144.479C140.357 144.332 140.42 144.164 140.504 144.017C140.567 143.87 140.63 143.744 140.693 143.597L141.764 143.702L140.777 143.345L140.966 142.777C141.26 141.958 141.533 141.118 141.764 140.235L142.1 139.038C142.184 138.68 142.247 138.323 142.33 137.945L142.561 136.832C142.624 136.495 142.708 136.18 142.75 135.844C142.855 135.172 142.939 134.457 143.044 133.743L143.149 132.903C143.191 132.609 143.233 132.314 143.254 131.999C143.38 130.571 143.464 129.289 143.506 127.965L144.955 75.0416L128.977 58.9271L127.591 109.855C127.549 111.284 127.465 112.691 127.339 114.036C127.297 114.372 127.255 114.687 127.213 115.023L127.108 115.801C127.024 116.557 126.919 117.313 126.814 118.049C126.751 118.406 126.688 118.763 126.605 119.12L126.458 119.835C126.311 120.528 126.185 121.221 126.017 121.873L125.807 122.629C125.555 123.553 125.282 124.436 124.967 125.318L124.652 125.969C124.547 126.243 124.442 126.495 124.316 126.747L124.127 127.188C123.791 127.986 123.455 128.785 123.056 129.541C122.867 129.898 122.657 130.255 122.468 130.613L122.3 130.928C121.964 131.495 121.649 132.062 121.293 132.588C121.041 132.966 120.768 133.323 120.495 133.68C119.991 134.352 119.571 134.899 119.151 135.382C118.563 136.054 117.975 136.706 117.345 137.315C116.568 138.05 115.771 138.701 115.141 139.185C114.826 139.437 114.49 139.668 114.154 139.899C113.503 140.34 112.999 140.697 112.453 141.034C112.054 141.286 111.634 141.517 111.214 141.748C110.669 142.042 110.102 142.336 109.514 142.63C109.073 142.84 108.632 143.029 108.191 143.24C107.582 143.492 106.973 143.723 106.343 143.954C105.882 144.122 105.42 144.29 104.937 144.437C104.286 144.647 103.614 144.815 102.921 145.004L102.606 145.088C102.228 145.193 101.85 145.278 101.451 145.383C100.717 145.551 99.9607 145.677 99.2048 145.803L98.7639 145.887C98.428 145.95 98.092 146.013 97.7351 146.055C96.8742 146.181 95.9924 146.265 95.0896 146.328L94.6067 146.37C94.3337 146.391 94.0608 146.433 93.7878 146.454C92.4441 146.538 91.0584 146.601 89.6306 146.601C82.765 146.601 76.4452 145.509 70.9023 143.282C70.1674 142.987 69.4535 142.693 68.7817 142.357Z" fill="white"/>
<path d="M127.885 56.5318L126.436 109.897C126.121 121.746 122.824 130.634 116.589 136.558C110.353 142.504 101.346 145.487 89.6089 145.53C82.8272 145.551 76.7174 144.479 71.2794 142.294C65.8205 140.13 61.3904 136.936 57.947 132.735L74.2189 114.057C76.4445 116.935 78.67 119.078 80.8536 120.486C83.0582 121.893 85.3467 122.587 87.7613 122.587C90.8057 122.587 93.1782 121.662 94.8369 119.834C96.4956 118.007 97.3774 115.317 97.4824 111.767L98.3852 78.7392L68.8649 78.8443L69.4738 56.7629L127.885 56.5318Z" fill="white"/>
<path d="M89.3992 146.579C82.5965 146.579 76.3817 145.466 70.8808 143.26C65.3168 141.054 60.6977 137.734 57.1284 133.385C56.8135 132.986 56.8135 132.419 57.1494 132.02L73.4213 113.363C73.6312 113.132 73.9252 113.006 74.2401 113.006C74.555 113.006 74.849 113.174 75.038 113.405C77.2005 116.199 79.3421 118.279 81.3997 119.582C83.4153 120.884 85.5989 121.494 87.7405 121.515C90.491 121.515 92.5906 120.695 94.0393 119.099C95.53 117.481 96.3278 114.981 96.4118 111.703L97.2727 79.7472L68.8442 79.8522C68.6552 79.8522 68.2983 79.7472 68.0883 79.5371C67.8993 79.327 67.7734 79.0539 67.7944 78.7807L68.4032 56.6994C68.4242 56.1321 68.8861 55.6699 69.453 55.6699L127.885 55.4598C128.158 55.4598 128.431 55.5648 128.641 55.7749C128.851 55.985 128.956 56.2582 128.935 56.5313L127.486 109.896C127.15 121.977 123.728 131.179 117.324 137.293C110.899 143.407 101.577 146.516 89.6301 146.558C89.5462 146.579 89.4622 146.579 89.3992 146.579ZM59.333 132.755C62.5874 136.495 66.7236 139.373 71.6576 141.327C76.9486 143.449 83.0794 144.542 89.6091 144.478C101.01 144.436 109.849 141.516 115.875 135.801C121.88 130.087 125.071 121.368 125.386 109.875L126.814 57.5818L70.4818 57.7709L69.9359 77.7512L98.3645 77.6462C98.6374 77.6462 98.9103 77.7512 99.1203 77.9613C99.3303 78.1714 99.4352 78.4446 99.4142 78.7177L98.5114 111.745C98.4064 115.548 97.4196 118.489 95.593 120.506C93.7453 122.544 91.0999 123.595 87.7405 123.616C87.7195 123.616 87.7195 123.616 87.6985 123.616C85.116 123.616 82.6175 122.859 80.266 121.347C78.2503 120.086 76.2137 118.174 74.1561 115.674L59.333 132.755Z" fill="white"/>
</svg>
